<svg height="24" width="24" xmlns="http://www.w3.org/2000/svg" xmlns:xlink="http://www.w3.org/1999/xlink"><filter id="a" color-interpolation-filters="sRGB" height="1.48" width="1.48" x="-.24" y="-.24"><feGaussianBlur stdDeviation="1.8"/></filter><path d="m11 2.9999999v5.5l1 1.0000001 1-1.0000001v-5.5zm-8 8.0000001v2h5.5l1-1-1-1zm12.5 0-1 1 1 1h5.5v-2zm-3.5 3.5-1 1v5.5h2v-5.5z" style="opacity:.5;fill-rule:evenodd;stroke:#000;stroke-width:2;stroke-linejoin:round;filter:url(#a)"/><path d="m10 1.9999999v5.5l1 1 1-1v-5.5zm-8 8.0000001v2h5.5l1-1-1-1zm12.5 0-1 1 1 1h5.5v-2zm-3.5 3.5-1 1v5.5h2v-5.5z" fill="none" stroke="#fff" stroke-linejoin="round" stroke-width="2"/><path d="m10 1.9999999v5.5l1 1 1-1v-5.5zm-8 8.0000001v2h5.5l1-1-1-1zm12.5 0-1 1 1 1h5.5v-2zm-3.5 3.5-1 1v5.5h2v-5.5z" fill-rule="evenodd"/></svg>